# xmcd CD database file
#
# Track frame offsets:
#	150
#	44011
#	67846
#	97698
#	139888
#	168395
#	201347
#	217240
#	256757
#	297417
#
# Disc length: 4519 seconds
#
# Revision: 0
# Processed by: cddbd v1.5.2PL0 Copyright (c) Steve Scherf et al.
# Submitted via: CDex 1.99.1
#
DISCID=9911a50a
DTITLE=Blakey, Arthur William 'Art' (1919-1990) - Art Blakey 1954 - A Night At Birdland Vol.1 and Vol.2
DYEAR=1954
DGENRE=Jazz
TTITLE0=Split Kick
TTITLE1=Once In A While
TTITLE2=Quicksilver
TTITLE3=A Night In Tunisia
TTITLE4=Mayreh
TTITLE5=Wee-Dot
TTITLE6=If I Had You
TTITLE7=Quicksilver
TTITLE8=Now's The Time
TTITLE9=Confirmation
EXTD=YEAR: 1954
EXTT0=
EXTT1=
EXTT2=
EXTT3=
EXTT4=
EXTT5=
EXTT6=
EXTT7=
EXTT8=
EXTT9=
PLAYORDER=
